<svg width="490" height="490" xmlns="http://www.w3.org/2000/svg"><path fill="none" d="M-1-1h582v402H-1z"/><g><path d="M199.9 369.9H84.8c-5.5 0-9.9 4.4-9.9 9.9s4.4 9.9 9.9 9.9h106.6c3.1 8.6 11.4 14.7 21 14.7h63.2c9.6 0 17.9-6.1 21-14.7h106.7c5.5 0 9.9-4.4 9.9-9.9s-4.4-9.9-9.9-9.9H288.2c-5.5 0-9.9 4.4-9.9 9.9v2.2c0 1.4-1.2 2.6-2.6 2.6h-63.2c-1.4 0-2.6-1.2-2.6-2.6v-2.2c-.1-5.5-4.5-9.9-10-9.9z" fill="#fff"/><path stroke="#fff" d="M480.3 369.9h-26V141.8c0-5.5-4.4-9.9-9.9-9.9s-9.9 4.4-9.9 9.9v238c0 5.5 4.5 9.9 10 9.9h25.9v13.6c0 14-11.4 25.4-25.4 25.4H45.2c-14 0-25.4-11.4-25.4-25.4v-13.6h25.9c5.5 0 9.9-4.4 9.9-9.9v-238c0-5.5-4.4-9.9-9.9-9.9s-9.9 4.4-9.9 9.9v228.1H9.9c-5.5 0-9.9 4.4-9.9 9.9v23.5c0 24.9 20.3 45.2 45.2 45.2H445c24.9 0 45.2-20.3 45.2-45.2v-23.5c0-5.5-4.4-9.9-9.9-9.9z" fill="#fff"/><path stroke="#fff" d="M367.3 40.7H122.9c-20 0-36.3 16.3-36.3 36.3v144.4c0 20 16.3 36.3 36.3 36.3h10.3v43.5c0 8.1 6.6 14.6 14.7 14.6 4.2 0 8.2-1.8 11-5.1l45.8-53h162.6c20 0 36.3-16.3 36.3-36.3V77c0-20-16.3-36.3-36.3-36.3zm16.5 180.7c0 9.1-7.4 16.5-16.5 16.5H200.1c-2.9 0-5.6 1.2-7.5 3.4l-39.7 45.9v-39.4c0-5.5-4.4-9.9-9.9-9.9h-20.2c-9.1 0-16.5-7.4-16.5-16.5V77c0-9.1 7.4-16.5 16.5-16.5h244.4c9.1 0 16.5 7.4 16.5 16.5v144.4h.1z" fill="#fff"/><g stroke="null"><path fill="#0087af" stroke="#0087af" stroke-width="6" d="M290.342 206.33h-7.713v-13.825c0-13.987-7.676-26.844-21.615-36.204-1.733-1.164-2.81-3.676-2.81-6.56s1.077-5.395 2.811-6.56c13.938-9.358 21.614-22.215 21.615-36.203V93.153h7.712a4.5 4.5 0 0 0 0-9.002h-90.483a4.5 4.5 0 1 0 0 9.002h7.713v13.826c0 13.987 7.675 26.844 21.614 36.203 1.733 1.165 2.81 3.676 2.81 6.56 0 2.884-1.077 5.396-2.81 6.56-13.939 9.36-21.614 22.216-21.614 36.204v13.825h-7.713a4.501 4.501 0 0 0 0 9.002h90.482a4.5 4.5 0 0 0 4.5-4.5 4.5 4.5 0 0 0-4.5-4.503zm-73.768-13.825c0-14.697 11.045-24.308 17.63-28.729 4.254-2.856 6.795-8.103 6.795-14.034 0-5.931-2.54-11.178-6.796-14.034-6.584-4.42-17.63-14.032-17.63-28.729V93.153h57.054l-.001 13.826c0 14.697-11.045 24.309-17.629 28.728-4.256 2.857-6.796 8.104-6.796 14.035 0 5.932 2.54 11.178 6.795 14.034 6.585 4.42 17.63 14.032 17.63 28.73v13.824h-57.052v-13.825z"/></g></g></svg>
