<svg width="490" height="490" xmlns="http://www.w3.org/2000/svg"><path fill="none" d="M-1-1h582v402H-1z"/><g><path fill="#fff" d="M200.9 369.9H85.8c-5.5 0-9.9 4.4-9.9 9.9s4.4 9.9 9.9 9.9h106.6c3.1 8.6 11.4 14.7 21 14.7h63.2c9.6 0 17.9-6.1 21-14.7h106.7c5.5 0 9.9-4.4 9.9-9.9s-4.4-9.9-9.9-9.9H289.2c-5.5 0-9.9 4.4-9.9 9.9v2.2c0 1.4-1.2 2.6-2.6 2.6h-63.2c-1.4 0-2.6-1.2-2.6-2.6v-2.2c-.1-5.5-4.5-9.9-10-9.9z"/><path fill="#fff" d="M480.3 369.9h-26V141.8c0-5.5-4.4-9.9-9.9-9.9s-9.9 4.4-9.9 9.9v238c0 5.5 4.5 9.9 10 9.9h25.9v13.6c0 14-11.4 25.4-25.4 25.4H45.2c-14 0-25.4-11.4-25.4-25.4v-13.6h25.9c5.5 0 9.9-4.4 9.9-9.9v-238c0-5.5-4.4-9.9-9.9-9.9s-9.9 4.4-9.9 9.9v228.1H9.9c-5.5 0-9.9 4.4-9.9 9.9v23.5c0 24.9 20.3 45.2 45.2 45.2H445c24.9 0 45.2-20.3 45.2-45.2v-23.5c0-5.5-4.4-9.9-9.9-9.9z"/><path fill="#fff" d="M367.3 41.7H122.9c-20 0-36.3 16.3-36.3 36.3v144.4c0 20 16.3 36.3 36.3 36.3h10.3v43.5c0 8.1 6.6 14.6 14.7 14.6 4.2 0 8.2-1.8 11-5.1l45.8-53h162.6c20 0 36.3-16.3 36.3-36.3V78c0-20-16.3-36.3-36.3-36.3zm16.5 180.7c0 9.1-7.4 16.5-16.5 16.5H200.1c-2.9 0-5.6 1.2-7.5 3.4l-39.7 45.9v-39.4c0-5.5-4.4-9.9-9.9-9.9h-20.2c-9.1 0-16.5-7.4-16.5-16.5V78c0-9.1 7.4-16.5 16.5-16.5h244.4c9.1 0 16.5 7.4 16.5 16.5v144.4h.1z"/><g stroke="null"><path fill="#0087af" d="M288.903 143.893c-1.496-1.495-3.311-2.243-5.449-2.243h-2.562v-15.383c0-9.828-3.524-18.267-10.575-25.317-7.05-7.051-15.488-10.577-25.317-10.577-9.83 0-18.269 3.526-25.318 10.576-7.051 7.051-10.575 15.49-10.575 25.318v15.383h-2.564c-2.136 0-3.952.748-5.448 2.243-1.496 1.495-2.243 3.311-2.243 5.449v46.148c0 2.136.748 3.953 2.243 5.45 1.496 1.493 3.312 2.241 5.448 2.241h76.913c2.138 0 3.953-.747 5.449-2.242 1.494-1.496 2.243-3.313 2.243-5.449v-46.149c.001-2.136-.749-3.952-2.245-5.448zm-23.393-2.243h-41.02v-15.383c0-5.662 2.003-10.496 6.009-14.501 4.006-4.006 8.84-6.009 14.501-6.009 5.663 0 10.495 2.002 14.502 6.009 4.005 4.005 6.008 8.839 6.008 14.5v15.384z" stroke-width=".28062"/></g></g></svg>
