<svg width="490" height="490" xmlns="http://www.w3.org/2000/svg"><path fill="none" d="M-1-1h582v402H-1z"/><g><path fill="#fff" d="M200.9 369.9H85.8c-5.5 0-9.9 4.4-9.9 9.9s4.4 9.9 9.9 9.9h106.6c3.1 8.6 11.4 14.7 21 14.7h63.2c9.6 0 17.9-6.1 21-14.7h106.7c5.5 0 9.9-4.4 9.9-9.9s-4.4-9.9-9.9-9.9H289.2c-5.5 0-9.9 4.4-9.9 9.9v2.2c0 1.4-1.2 2.6-2.6 2.6h-63.2c-1.4 0-2.6-1.2-2.6-2.6v-2.2c-.1-5.5-4.5-9.9-10-9.9z"/><path fill="#fff" d="M480.3 369.9h-26V141.8c0-5.5-4.4-9.9-9.9-9.9s-9.9 4.4-9.9 9.9v238c0 5.5 4.5 9.9 10 9.9h25.9v13.6c0 14-11.4 25.4-25.4 25.4H45.2c-14 0-25.4-11.4-25.4-25.4v-13.6h25.9c5.5 0 9.9-4.4 9.9-9.9v-238c0-5.5-4.4-9.9-9.9-9.9s-9.9 4.4-9.9 9.9v228.1H9.9c-5.5 0-9.9 4.4-9.9 9.9v23.5c0 24.9 20.3 45.2 45.2 45.2H445c24.9 0 45.2-20.3 45.2-45.2v-23.5c0-5.5-4.4-9.9-9.9-9.9z"/><path fill="#fff" d="M367.3 41.7H122.9c-20 0-36.3 16.3-36.3 36.3v144.4c0 20 16.3 36.3 36.3 36.3h10.3v43.5c0 8.1 6.6 14.6 14.7 14.6 4.2 0 8.2-1.8 11-5.1l45.8-53h162.6c20 0 36.3-16.3 36.3-36.3V78c0-20-16.3-36.3-36.3-36.3zm16.5 180.7c0 9.1-7.4 16.5-16.5 16.5H200.1c-2.9 0-5.6 1.2-7.5 3.4l-39.7 45.9v-39.4c0-5.5-4.4-9.9-9.9-9.9h-20.2c-9.1 0-16.5-7.4-16.5-16.5V78c0-9.1 7.4-16.5 16.5-16.5h244.4c9.1 0 16.5 7.4 16.5 16.5v144.4h.1z"/><g stroke="null"><g fill="#0087af" transform="matrix(.48122 0 0 .48122 -35.862 -17.124)"><circle r="60" cy="275.229" cx="583.643"/><path d="M583.643 365.229c-60.061 0-108.75 48.689-108.75 108.75h217.5c0-60.061-48.69-108.75-108.75-108.75z"/></g></g></g></svg>
